<svg width="40" height="40" fill="none" xmlns="http://www.w3.org/2000/svg"><circle cx="19.847" cy="19.847" r="19.847" fill="#000"/><path d="M20.25 8C14.213 8 11 12.04 11 16.444c0 2.043 1.094 4.59 2.844 5.398.266.125.41.072.47-.185.052-.196.282-1.137.393-1.581a.42.42 0 0 0-.093-.4c-.581-.702-1.043-1.98-1.043-3.179 0-3.072 2.34-6.055 6.322-6.055 3.443 0 5.852 2.335 5.852 5.674 0 3.774-1.913 6.385-4.4 6.385-1.375 0-2.4-1.127-2.075-2.522.393-1.66 1.163-3.446 1.163-4.643 0-1.074-.582-1.962-1.769-1.962-1.4 0-2.537 1.447-2.537 3.39 0 1.236.42 2.07.42 2.07l-1.644 6.933c-.435 1.847.06 4.839.102 5.096.026.142.179.187.264.07.137-.186 1.812-2.68 2.281-4.483.17-.657.872-3.321.872-3.321.461.87 1.793 1.598 3.212 1.598 4.22 0 7.269-3.87 7.269-8.675C28.887 11.446 25.11 8 20.25 8Z" fill="#fff"/></svg>