<svg width="40" height="40" fill="none" xmlns="http://www.w3.org/2000/svg"><circle cx="19.847" cy="19.847" r="19.847" fill="#000"/><path d="M29.874 23.038c1.996 1.934 2.412 2.88 2.48 2.996.823 1.434-.915 1.547-.915 1.547l-3.328.05s-.72.148-1.659-.53c-1.247-.892-2.95-3.218-3.864-2.915-.929.306-.633 2.744-.633 2.744s.008.298-.202.538c-.232.253-.681.156-.681.156h-.959s-3.553.015-6.451-3.14c-3.157-3.438-5.796-9.868-5.796-9.868s-.161-.407.01-.624c.2-.244.735-.24.735-.24h3.56s.334.046.573.232c.203.151.311.438.311.438s.43 1.198 1.194 2.578c1.487 2.69 2.18 3.279 2.685 2.988.734-.422.513-3.802.513-3.802s.015-1.23-.37-1.776c-.3-.426-.858-.55-1.105-.585-.202-.023.127-.511.554-.728.64-.326 1.775-.35 3.111-.334 1.041.012 1.435-.004 1.435-.004 1.228.31.812 1.512.812 4.38 0 .923-.16 2.217.476 2.643.273.19 1.254.218 2.92-2.747.794-1.408 1.42-2.73 1.42-2.73s.134-.298.332-.422c.21-.131.487-.131.487-.131l3.748.019s1.127-.147 1.307.387c.191.559-.46 1.535-1.988 3.671-2.516 3.508-2.797 3.182-.712 5.21Z" fill="#fff"/></svg>