<svg width="90" height="90" fill="none" xmlns="http://www.w3.org/2000/svg"><path d="M54.573 54.235c-2.795 2.795-2.446 8.435-2.446 8.435H37.951s.3-5.64-2.446-8.435c-3.045-2.696-4.992-6.59-4.992-10.932 0-7.987 6.49-14.476 14.476-14.476 7.987 0 14.476 6.49 14.476 14.476 0 4.343-1.897 8.236-4.892 10.932z" fill="#FFD517"/><path d="M52.526 67.113c0 .749-.599 1.348-1.347 1.348h-12.33a1.342 1.342 0 01-1.347-1.348c0-.749.598-1.348 1.347-1.348h12.28c.748 0 1.398.6 1.398 1.348zM50.68 72.704c0 .749-.6 1.348-1.348 1.348h-8.636a1.342 1.342 0 01-1.348-1.348c0-.749.6-1.348 1.348-1.348h8.636c.748 0 1.347.6 1.347 1.348z" fill="#E5E5E5"/><path d="M55.322 54.734c3.244-2.945 5.091-7.088 5.091-11.431 0-8.486-6.938-15.424-15.424-15.424s-15.424 6.938-15.424 15.424c0 4.442 1.947 8.685 5.241 11.58 2.446 2.447 2.196 7.638 2.196 7.688 0 .25.1.499.25.699.2.2.45.3.699.3h14.126c.25 0 .5-.1.699-.3.2-.2.25-.45.25-.7 0-.05-.25-5.24 2.196-7.687.05-.05.1-.1.1-.15zm-1.398-1.248c-.1.05-.15.15-.2.25-2.196 2.346-2.545 6.19-2.595 7.986h-12.23c-.05-1.847-.45-5.84-2.795-8.186-2.945-2.596-4.642-6.29-4.642-10.183 0-7.488 6.09-13.528 13.527-13.528 7.488 0 13.528 6.09 13.528 13.528 0 3.843-1.648 7.587-4.593 10.133z" fill="#44A2AF"/><path d="M44.989 31.872a.948.948 0 100 1.897c5.59 0 10.133 4.542 10.133 10.133a.948.948 0 101.897 0c0-6.64-5.391-12.03-12.03-12.03zM53.475 67.113a2.29 2.29 0 00-2.296-2.296h-12.33a2.29 2.29 0 00-2.296 2.296 2.29 2.29 0 002.296 2.296h12.28c1.298 0 2.346-.998 2.346-2.296zm-2.346.4h-12.28c-.25 0-.4-.2-.4-.4 0-.25.2-.4.4-.4h12.28c.25 0 .4.2.4.4.049.25-.15.4-.4.4zM49.332 70.408h-8.636a2.29 2.29 0 00-2.296 2.296A2.29 2.29 0 0040.696 75h8.636a2.29 2.29 0 002.296-2.296c0-1.248-1.048-2.296-2.296-2.296zm0 2.695h-8.636c-.25 0-.4-.2-.4-.4 0-.249.2-.398.4-.398h8.636c.25 0 .4.2.4.399 0 .25-.15.4-.4.4zM45.937 22.338v-6.39a.948.948 0 10-1.896 0v6.44c0 .499.399.948.948.948.55-.05.948-.45.948-.998zM60.713 19.742c-.45-.3-.998-.15-1.298.25l-3.544 5.34c-.3.45-.15 1 .25 1.299.15.1.349.15.499.15.3 0 .599-.15.798-.4l3.544-5.341c.3-.4.15-.998-.25-1.298zM33.708 26.58c.15 0 .35-.05.499-.149.45-.3.55-.849.3-1.298l-3.445-5.39c-.3-.45-.848-.55-1.298-.3-.449.3-.549.848-.3 1.297l3.445 5.392c.2.299.5.449.799.449zM20.48 31.073l5.64 3.045c.15.1.3.1.45.1.35 0 .649-.2.848-.5a.939.939 0 00-.399-1.297l-5.64-3.045a.939.939 0 00-1.299.4c-.2.498-.05 1.048.4 1.297zM63.408 34.268c.15 0 .3-.05.45-.1l5.64-3.045a.968.968 0 00.4-1.298.968.968 0 00-1.298-.399l-5.64 3.045a.968.968 0 00-.4 1.298c.15.3.499.499.848.499zM46.867 63c.515 0 .933-.43.933-.96V51.48h1.867c2.061 0 3.733-1.72 3.733-3.84s-1.672-3.84-3.733-3.84c-2.062 0-3.734 1.72-3.734 3.84v1.92h-1.866v-1.92c0-2.12-1.672-3.84-3.734-3.84-2.061 0-3.733 1.72-3.733 3.84s1.672 3.84 3.733 3.84H42.2v10.56c0 .53.418.96.933.96.516 0 .934-.43.934-.96V51.48h1.866v10.56c0 .53.418.96.934.96zm.933-15.36c0-1.06.836-1.92 1.867-1.92 1.03 0 1.866.86 1.866 1.92s-.835 1.92-1.866 1.92H47.8v-1.92zm-5.6 1.92h-1.867c-1.03 0-1.866-.86-1.866-1.92s.835-1.92 1.866-1.92c1.031 0 1.867.86 1.867 1.92v1.92z" fill="#44A2AF"/><circle cx="45" cy="45" r="43.5" stroke="#44A2AF" stroke-width="3"/></svg>