<svg width="90" height="90" fill="none" xmlns="http://www.w3.org/2000/svg"><path d="M43.464 61.688c-2.928-.024-5.28-.924-7.056-2.7-1.752-1.752-2.628-4.32-2.628-7.704 0-2.04-.66-3.408-1.98-4.104l-.468-.18c-.36-.216-.612-.42-.756-.612-.144-.216-.216-.504-.216-.864v-1.332c0-.336.072-.612.216-.828.168-.216.42-.42.756-.612l.468-.216c1.32-.672 1.98-2.028 1.98-4.068 0-3.384.876-5.952 2.628-7.704 1.752-1.752 4.092-2.652 7.02-2.7h.216c.216 0 .396.084.54.252a.682.682 0 01.252.54v3.276a.733.733 0 01-.216.54.846.846 0 01-.504.252h-.144c-1.512.12-2.604.648-3.276 1.584-.648.912-.972 2.412-.972 4.5 0 1.464-.252 2.724-.756 3.78-.48 1.032-1.116 1.728-1.908 2.088.792.36 1.428 1.08 1.908 2.16.504 1.08.756 2.316.756 3.708 0 2.088.324 3.6.972 4.536.648.912 1.728 1.428 3.24 1.548l.18.036a.69.69 0 01.504.216.86.86 0 01.216.576v3.24a.72.72 0 01-.252.576.733.733 0 01-.54.216h-.18zm3.701-33.624c2.928.024 5.268.924 7.02 2.7 1.776 1.752 2.664 4.32 2.664 7.704 0 1.032.156 1.884.468 2.556.312.672.816 1.188 1.512 1.548l.432.216c.336.192.576.396.72.612.168.216.252.492.252.828v1.332c0 .336-.084.612-.252.828-.144.216-.384.42-.72.612l-.468.216c-1.296.672-1.944 2.028-1.944 4.068 0 3.384-.876 5.952-2.628 7.704-1.752 1.776-4.092 2.676-7.02 2.7h-.216c-.24 0-.432-.072-.576-.216-.144-.144-.216-.336-.216-.576v-3.24c0-.24.072-.432.216-.576a.69.69 0 01.504-.216h.108c1.536-.12 2.628-.636 3.276-1.548.672-.936 1.008-2.448 1.008-4.536 0-1.488.24-2.748.72-3.78.48-1.032 1.116-1.74 1.908-2.124-.768-.336-1.404-1.044-1.908-2.124-.48-1.08-.72-2.328-.72-3.744 0-2.064-.336-3.564-1.008-4.5-.648-.936-1.716-1.464-3.204-1.584h-.18a.846.846 0 01-.504-.252.733.733 0 01-.216-.54v-3.276c0-.216.072-.396.216-.54a.72.72 0 01.576-.252h.18z" fill="#44A2AF"/><circle cx="45" cy="45" r="43.5" stroke="#44A2AF" stroke-width="3"/></svg>