<svg width="100" height="100" fill="none" xmlns="http://www.w3.org/2000/svg"><path d="M27.54 9.96H15.43v18.946h12.11V9.961z" fill="#FFDC64"/><path d="M27.54 9.96H15.43v5.08h12.11V9.96z" fill="#FFC850"/><path d="M93.335 41.333L50 11.865 6.665 41.333v52.002h86.67V41.333z" fill="#FFDC64"/><path d="M50 11.865L6.665 41.333v10.4L50 20.533l43.335 31.2v-10.4L50 11.865z" fill="#FFC850"/><path d="M50 4.932L1.465 39.6v8.667L50 13.599l48.535 34.668V39.6L50 4.932z" fill="#44A2AF"/><path d="M59.324 41.333c-3.64 0-6.935 1.453-9.324 3.803a13.258 13.258 0 00-9.324-3.803c-7.296 0-13.21 5.835-13.21 13.034 0 9.967 11.85 21.947 22.534 26.834 10.684-4.887 22.534-16.867 22.534-26.834 0-7.199-5.914-13.034-13.21-13.034z" fill="#FF94AD"/><path d="M37.866 54.367c0-5.764 2.92-10.646 6.964-12.366a13.325 13.325 0 00-4.155-.668c-7.295 0-13.21 5.835-13.21 13.034 0 9.967 11.85 21.947 22.535 26.834a38.812 38.812 0 002.94-1.524c-7.543-5.548-15.074-16.251-15.074-25.31z" fill="#FF87A6"/><path d="M95.068 77.734h-29.29c-.823 0-1.612.304-2.24.836-3.6 3.045-7.53 5.601-11.375 7.36a5.2 5.2 0 01-4.326 0c-3.845-1.759-7.776-4.316-11.374-7.36a3.473 3.473 0 00-2.242-.836H4.931v17.334h90.137V77.734z" fill="#FFC850"/><path d="M69.24 46.016a1.465 1.465 0 00-.427 2.026 11.556 11.556 0 011.871 6.325c0 4.241-2.406 9.341-6.776 14.36C59.99 73.226 54.954 77.15 50 79.577a38.927 38.927 0 01-3.647-2.05 1.465 1.465 0 10-1.566 2.475 41.05 41.05 0 004.595 2.527 1.464 1.464 0 001.236 0c5.51-2.564 11.16-6.894 15.5-11.878 4.834-5.552 7.496-11.335 7.496-16.284 0-2.827-.812-5.567-2.347-7.923a1.465 1.465 0 00-2.027-.428zM41.3 73.822c-7.392-6.203-11.984-13.658-11.984-19.455 0-6.38 5.167-11.569 11.52-11.569 3.067 0 5.954 1.198 8.128 3.374a1.465 1.465 0 002.072 0 11.42 11.42 0 018.13-3.374c1.882 0 3.675.44 5.33 1.31a1.465 1.465 0 101.362-2.593 14.446 14.446 0 00-6.692-1.647A14.31 14.31 0 0050 43.158a14.31 14.31 0 00-9.165-3.29c-7.968 0-14.45 6.504-14.45 14.499 0 6.74 4.872 14.852 13.03 21.7.275.23.61.342.942.342a1.466 1.466 0 00.942-2.587z" fill="#44A2AF"/><path d="M99.386 38.408L50.852 3.74a1.465 1.465 0 00-1.703 0L28.93 18.18v-6.584h.269a1.465 1.465 0 000-2.93h-15.6a1.465 1.465 0 000 2.93h.268V28.94L.613 38.408A1.465 1.465 0 000 39.6v8.667a1.465 1.465 0 002.316 1.192l2.884-2.06v28.87h-.268c-.81 0-1.465.656-1.465 1.465v17.334c0 .81.656 1.465 1.465 1.465h90.136c.81 0 1.465-.656 1.465-1.465V77.734c0-.809-.656-1.465-1.465-1.465H94.8V47.4l2.884 2.06A1.464 1.464 0 00100 48.267V39.6c0-.474-.228-.917-.614-1.192zm-82.59-26.811h9.205v8.677l-9.204 6.574V11.597zM97.07 45.42l-8.088-5.777a1.465 1.465 0 00-1.703 2.384l4.591 3.279v30.963H67.334a1.465 1.465 0 000 2.93h26.27v14.404H6.395V79.2h26.27a1.465 1.465 0 000-2.93H8.13V45.306L50 15.399 82.077 38.31a1.465 1.465 0 101.703-2.384L50.85 12.407a1.465 1.465 0 00-1.703 0L2.93 45.42v-5.067L50 6.732l47.07 33.621v5.067z" fill="#44A2AF"/></svg>