<svg width="90" height="91" fill="none" xmlns="http://www.w3.org/2000/svg"><path d="M31.696 57.371c-.144 0-.348-.084-.612-.252l-12.96-8.82c-.36-.24-.624-.468-.792-.684a1.468 1.468 0 01-.252-.864v-1.116c0-.336.084-.624.252-.864.168-.24.432-.48.792-.72l12.96-8.82c.288-.144.492-.216.612-.216.216 0 .396.072.54.216.144.12.216.288.216.504v3.888c0 .336-.096.612-.288.828a3.141 3.141 0 01-.72.576l-7.848 5.148 7.848 5.184c.336.192.588.384.756.576.168.192.252.456.252.792v3.888a.733.733 0 01-.216.54.733.733 0 01-.54.216zm4.522 4.464a.793.793 0 01-.576-.252.69.69 0 01-.216-.504c0-.048.036-.168.108-.36l12.168-29.34c.288-.576.72-.864 1.296-.864h3.24c.216 0 .396.084.54.252a.69.69 0 01.216.504c0 .12-.024.24-.072.36l-12.24 29.34c-.24.576-.672.864-1.296.864h-3.168zm20.49-4.464a.69.69 0 01-.504-.216.733.733 0 01-.216-.54v-3.888c0-.336.084-.6.252-.792.168-.192.42-.384.756-.576l7.812-5.184-7.812-5.148a4.13 4.13 0 01-.756-.576c-.168-.216-.252-.492-.252-.828v-3.888c0-.216.072-.384.216-.504a.69.69 0 01.504-.216c.168 0 .372.072.612.216l12.996 8.82c.36.24.624.48.792.72.168.24.252.528.252.864v1.116c0 .336-.084.624-.252.864-.168.216-.432.444-.792.684L57.32 57.12c-.216.168-.42.252-.612.252z" fill="#44A2AF"/><circle cx="45" cy="45.811" r="43.5" stroke="#44A2AF" stroke-width="3"/></svg>