<svg width="90" height="91" fill="none" xmlns="http://www.w3.org/2000/svg"><path d="M19.976 56.792c-1.952-.016-3.52-.616-4.704-1.8-1.168-1.168-1.752-2.88-1.752-5.136 0-1.36-.44-2.272-1.32-2.736l-.312-.12c-.24-.144-.408-.28-.504-.408-.096-.144-.144-.336-.144-.576v-.888c0-.224.048-.408.144-.552.112-.144.28-.28.504-.408l.312-.144c.88-.448 1.32-1.352 1.32-2.712 0-2.256.584-3.968 1.752-5.136 1.168-1.168 2.728-1.768 4.68-1.8h.144c.144 0 .264.056.36.168a.455.455 0 01.168.36v2.184a.488.488 0 01-.144.36.564.564 0 01-.336.168h-.096c-1.008.08-1.736.432-2.184 1.056-.432.608-.648 1.608-.648 3 0 .976-.168 1.816-.504 2.52-.32.688-.744 1.152-1.272 1.392.528.24.952.72 1.272 1.44.336.72.504 1.544.504 2.472 0 1.392.216 2.4.648 3.024.432.608 1.152.952 2.16 1.032l.12.024a.46.46 0 01.336.144c.096.112.144.24.144.384v2.16a.48.48 0 01-.168.384.488.488 0 01-.36.144h-.12zM23.211 53a.639.639 0 01-.432-.168.639.639 0 01-.168-.432V36.56c0-.176.056-.32.168-.432a.639.639 0 01.432-.168h2.832c.176 0 .32.056.432.168a.585.585 0 01.168.432V52.4c0 .176-.056.32-.168.432a.585.585 0 01-.432.168h-2.832zm12.028.24c-1.92 0-3.432-.52-4.536-1.56-1.104-1.04-1.68-2.552-1.729-4.536v-.84c.064-1.888.648-3.36 1.753-4.416 1.12-1.072 2.616-1.608 4.488-1.608 1.36 0 2.503.28 3.431.84a5.134 5.134 0 012.112 2.256c.48.96.72 2.064.72 3.312v.576c0 .16-.056.304-.168.432a.585.585 0 01-.431.168h-7.68v.168c.032.752.215 1.36.552 1.824.336.464.824.696 1.464.696.4 0 .727-.08.983-.24a3.67 3.67 0 00.697-.624c.143-.176.255-.28.335-.312.097-.048.24-.072.433-.072h2.976c.143 0 .264.048.36.144a.39.39 0 01.167.336c0 .416-.24.896-.72 1.44-.463.544-1.143 1.016-2.04 1.416-.895.4-1.951.6-3.167.6zm2.016-7.752v-.048c0-.784-.184-1.4-.553-1.848-.352-.464-.847-.696-1.487-.696-.625 0-1.12.232-1.489.696-.352.448-.527 1.064-.527 1.848v.048h4.056zm11.61 7.752c-1.297 0-2.385-.184-3.265-.552-.864-.368-1.504-.808-1.92-1.32-.416-.512-.623-.968-.623-1.368a.48.48 0 01.167-.384.611.611 0 01.409-.168h2.735c.096 0 .184.04.264.12.193.128.337.232.433.312.352.256.656.448.912.576.272.112.6.168.984.168.464 0 .84-.088 1.128-.264.303-.192.456-.456.456-.792 0-.272-.08-.488-.24-.648-.145-.16-.432-.312-.864-.456-.433-.16-1.089-.328-1.969-.504-1.328-.272-2.352-.712-3.072-1.32-.703-.624-1.056-1.456-1.056-2.496 0-.656.209-1.28.624-1.872.416-.592 1.032-1.072 1.848-1.44.832-.368 1.816-.552 2.953-.552 1.136 0 2.128.176 2.976.528.848.352 1.488.784 1.92 1.296.447.496.672.952.672 1.368a.529.529 0 01-.169.384.455.455 0 01-.36.168h-2.495a.608.608 0 01-.36-.12 3.656 3.656 0 01-.553-.36 4.237 4.237 0 00-.767-.48c-.24-.112-.537-.168-.889-.168-.416 0-.752.096-1.008.288a.91.91 0 00-.36.744c0 .24.065.44.193.6.143.16.431.32.863.48.448.144 1.104.296 1.968.456 1.553.272 2.68.752 3.385 1.44.72.688 1.08 1.496 1.08 2.424 0 1.184-.529 2.136-1.584 2.856-1.056.704-2.529 1.056-4.416 1.056zm13.265 0c-1.296 0-2.384-.184-3.264-.552-.864-.368-1.504-.808-1.92-1.32-.416-.512-.624-.968-.624-1.368a.48.48 0 01.168-.384.611.611 0 01.408-.168h2.736c.096 0 .184.04.264.12.192.128.336.232.432.312.352.256.656.448.912.576.272.112.6.168.984.168.464 0 .84-.088 1.128-.264.304-.192.456-.456.456-.792 0-.272-.08-.488-.24-.648-.144-.16-.432-.312-.864-.456-.432-.16-1.088-.328-1.968-.504-1.328-.272-2.352-.712-3.072-1.32-.704-.624-1.056-1.456-1.056-2.496 0-.656.208-1.28.624-1.872.416-.592 1.032-1.072 1.848-1.44.832-.368 1.816-.552 2.952-.552s2.128.176 2.976.528c.848.352 1.488.784 1.92 1.296.448.496.672.952.672 1.368a.529.529 0 01-.168.384.455.455 0 01-.36.168h-2.496a.608.608 0 01-.36-.12 3.656 3.656 0 01-.552-.36 4.237 4.237 0 00-.768-.48c-.24-.112-.536-.168-.888-.168-.416 0-.752.096-1.008.288a.91.91 0 00-.36.744c0 .24.064.44.192.6.144.16.432.32.864.48.448.144 1.104.296 1.968.456 1.552.272 2.68.752 3.384 1.44.72.688 1.08 1.496 1.08 2.424 0 1.184-.528 2.136-1.584 2.856-1.056.704-2.528 1.056-4.416 1.056zm7.235-18.864c1.952.016 3.512.616 4.68 1.8 1.184 1.168 1.776 2.88 1.776 5.136 0 .688.104 1.256.312 1.704.208.448.544.792 1.008 1.032l.288.144c.224.128.384.264.48.408a.873.873 0 01.168.552v.888a.873.873 0 01-.168.552c-.096.144-.256.28-.48.408l-.312.144c-.864.448-1.296 1.352-1.296 2.712 0 2.256-.584 3.968-1.752 5.136-1.168 1.184-2.728 1.784-4.68 1.8h-.144a.519.519 0 01-.384-.144.519.519 0 01-.144-.384v-2.16c0-.16.048-.288.144-.384a.46.46 0 01.336-.144h.072c1.024-.08 1.752-.424 2.184-1.032.448-.624.672-1.632.672-3.024 0-.992.16-1.832.48-2.52.32-.688.744-1.16 1.272-1.416-.512-.224-.936-.696-1.272-1.416-.32-.72-.48-1.552-.48-2.496 0-1.376-.224-2.376-.672-3-.432-.624-1.144-.976-2.136-1.056h-.12a.564.564 0 01-.336-.168.488.488 0 01-.144-.36v-2.184c0-.144.048-.264.144-.36a.48.48 0 01.384-.168h.12z" fill="#44A2AF"/><circle cx="45" cy="45.811" r="43.5" stroke="#44A2AF" stroke-width="3"/></svg>