<svg width="90" height="91" fill="none" xmlns="http://www.w3.org/2000/svg"><path d="M32.696 56.56c-.144 0-.348-.084-.612-.252l-12.96-8.82c-.36-.24-.624-.468-.792-.684a1.468 1.468 0 01-.252-.864v-1.116c0-.336.084-.624.252-.864.168-.24.432-.48.792-.72l12.96-8.82c.288-.144.492-.216.612-.216.216 0 .396.072.54.216.144.12.216.288.216.504v3.888c0 .336-.096.612-.288.828a3.141 3.141 0 01-.72.576l-7.848 5.148 7.848 5.184c.336.192.588.384.756.576.168.192.252.456.252.792v3.888a.733.733 0 01-.216.54.733.733 0 01-.54.216zm11.362-7.092L41.25 46.66l2.412-2.592a22.197 22.197 0 001.692-2.016c.456-.648.684-1.236.684-1.764 0-.432-.132-.804-.396-1.116-.24-.312-.648-.468-1.224-.468l-4.392 2.268-2.628-5.58c.456-.432 1.08-.9 1.872-1.404.816-.504 1.776-.936 2.88-1.296 1.128-.36 2.376-.54 3.744-.54 2.448 0 4.332.588 5.652 1.764 1.344 1.176 2.016 2.688 2.016 4.536 0 1.872-.48 3.504-1.44 4.896s-2.22 2.568-3.78 3.528l-4.284 2.592zm0 10.332l-4.68-4.68 4.68-4.68 4.68 4.68-4.68 4.68zm14.178-3.24a.69.69 0 01-.505-.216.733.733 0 01-.215-.54v-3.888c0-.336.084-.6.252-.792.167-.192.42-.384.755-.576l7.812-5.184-7.811-5.148a4.13 4.13 0 01-.757-.576c-.168-.216-.252-.492-.252-.828v-3.888c0-.216.072-.384.216-.504a.69.69 0 01.505-.216c.168 0 .372.072.611.216l12.997 8.82c.36.24.624.48.791.72.168.24.252.528.252.864v1.116c0 .336-.084.624-.252.864-.168.216-.431.444-.791.684l-12.996 8.82c-.216.168-.42.252-.612.252z" fill="#44A2AF"/><circle cx="45" cy="45.811" r="43.5" stroke="#44A2AF" stroke-width="3"/></svg>