<svg height="512" viewBox="0 0 512 512" width="512" xmlns="http://www.w3.org/2000/svg">
<g id="Face_Screaming_in_Fear" data-name="Face Screaming in Fear">
<g id="Outline" fill="rgb(96, 65, 104)">
<path d="m88.78 57.609a8 8 0 0 0 6.81-12.179 8 8 0 0 0 -10.92-2.69l-.08.039a8 8 0 0 0 4.19 14.83z"/>
<path d="m3.7 221.92a7.965 7.965 0 0 0 5.38 2.09q.36 0 .72-.031a7.987 7.987 0 0 0 7.26-8.679c-.71-7.92-1.06-15.76-1.06-23.3.09-47.95 17.63-87.49 52.15-117.53a8 8 0 0 0 -10.47-12.1 163.731 163.731 0 0 0 -41.9 54.77c-10.52 22.49-15.83 47.67-15.78 74.86 0 8.01.38 16.319 1.12 24.72a8 8 0 0 0 2.58 5.2z"/><path d="m117.15 42.87a7.891 7.891 0 0 0 3.21-.681c38.48-16.889 86.6-26.189 135.51-26.189h.39c61.43 0 120.47 14.39 161.98 39.49 24.22 14.61 43.08 32.82 56.07 54.14 14.38 23.62 21.67 51.34 21.69 82.37 0 7.569-.36 15.41-1.06 23.3a8.016 8.016 0 0 0 7.26 8.679q.36.031.72.031a7.986 7.986 0 0 0 7.96-7.29c.74-8.37 1.12-16.691 1.12-24.72.02-34.021-8.07-64.53-24.03-90.7a171.253 171.253 0 0 0 -43.52-47.4c-16.42-12.4-35.75-22.921-57.45-31.27a332.612 332.612 0 0 0 -64.85-17.28 406.985 406.985 0 0 0 -66.15-5.35 398.814 398.814 0 0 0 -71.83 6.47 320.189 320.189 0 0 0 -70.24 21.07 8 8 0 0 0 3.22 15.33z"/><path d="m343.99 471.58a7.981 7.981 0 0 0 -3.93 1.04c-27.45 15.51-55.74 23.38-84.06 23.38s-56.6-7.87-84.06-23.38a8 8 0 1 0 -7.87 13.93l.23.13a203.053 203.053 0 0 0 44.15 18.6 174.054 174.054 0 0 0 47.53 6.72h.04a174.054 174.054 0 0 0 47.53-6.721 202.66 202.66 0 0 0 44.39-18.739 8 8 0 0 0 -3.95-14.96z"/><path d="m201.312 288.683c14.63-19.508 22.688-45.321 22.688-72.683s-8.058-53.175-22.688-72.683c-15.147-20.195-35.5-31.317-57.312-31.317s-42.165 11.122-57.312 31.317c-14.63 19.508-22.688 45.321-22.688 72.683s8.058 53.175 22.688 72.683c15.147 20.195 35.5 31.317 57.312 31.317s42.165-11.122 57.312-31.317zm-57.312 15.317c-35.29 0-64-39.477-64-88s28.71-88 64-88 64 39.477 64 88-28.71 88-64 88z"/><path d="m368 320c21.812 0 42.165-11.122 57.312-31.317 14.63-19.508 22.688-45.321 22.688-72.683s-8.058-53.175-22.688-72.683c-15.147-20.195-35.5-31.317-57.312-31.317s-42.165 11.122-57.312 31.317c-14.63 19.508-22.688 45.321-22.688 72.683s8.058 53.175 22.688 72.683c15.147 20.195 35.5 31.317 57.312 31.317zm0-192c35.29 0 64 39.477 64 88s-28.71 88-64 88-64-39.477-64-88 28.71-88 64-88z"/><path d="m256 288a40.015 40.015 0 0 0 -40 40v80a40 40 0 0 0 80 0v-80a40.015 40.015 0 0 0 -40-40zm24 120a24 24 0 0 1 -48 0v-80a24 24 0 0 1 48 0z"/><path d="m485.32 243.77a47.937 47.937 0 0 0 -29.32 44.23v49.75a16.01 16.01 0 0 1 -8.34 14.05l-29.63 16.16a95.952 95.952 0 0 0 -50.03 84.28v51.76a8 8 0 0 0 16 0v-51.76a79.954 79.954 0 0 1 41.69-70.23l29.63-16.17a31.96 31.96 0 0 0 16.68-28.09v-49.75a32.03 32.03 0 0 1 24-31v119a24.128 24.128 0 0 1 -9.6 19.2l-44.8 33.6a23.983 23.983 0 0 0 -9.6 19.2v56a8 8 0 0 0 16 0v-56a8.052 8.052 0 0 1 3.2-6.4l44.8-33.6a39.972 39.972 0 0 0 16-32v-135.95l-8-.05a47.7 47.7 0 0 0 -18.68 3.77z"/><path d="m93.97 367.96-29.63-16.16a16.01 16.01 0 0 1 -8.34-14.05v-49.75a47.786 47.786 0 0 0 -3.77-18.69 47.968 47.968 0 0 0 -44.23-29.31h-8v136a39.972 39.972 0 0 0 16 32l44.8 33.6a8.052 8.052 0 0 1 3.2 6.4v56a8 8 0 0 0 16 0v-56a23.983 23.983 0 0 0 -9.6-19.2l-44.8-33.6a24.128 24.128 0 0 1 -9.6-19.2v-119a32.112 32.112 0 0 1 14.63 8.37 31.834 31.834 0 0 1 9.37 22.63v49.75a31.96 31.96 0 0 0 16.68 28.09l29.63 16.17a79.954 79.954 0 0 1 41.69 70.23v51.76a8 8 0 0 0 16 0v-51.76a95.952 95.952 0 0 0 -50.03-84.28z"/></g></g></svg>